# xmcd
#
# Track frame offsets:
#	150
#	11996
#	29649
#	42502
#	74625
#
# Disc length: 1701 seconds
#
# Revision: 1
# Processed by: cddbd v1.5.1PL0 Copyright (c) Steve Scherf et al.
# Submitted via: EasyCDDAExtractor 5.0.6
#
DISCID=4a06a305
DTITLE=Youth Group - Someone Else's Dream
DYEAR=2005
DGENRE=Indie
TTITLE0=Someone Else's Dream
TTITLE1=Baby Body
TTITLE2=Time Freezes
TTITLE3=Daisychains (Demo)
TTITLE4=Baby Body Video
EXTD=
EXTT0=
EXTT1=
EXTT2=
EXTT3=
EXTT4=
PLAYORDER=
